PathFileType	4	(X/Y/Z)	S1_rest_med_left.trc
DataRate	CameraRate	NumFrames	NumMarkers	Units	OrigDataRate	OrigDataStartFrame	OrigNumFrames
250.00	250.00	17	18	mm	250.00	8480	22613
Frame#	Time	c7	r_should	l_should	clavicle	r_upa	r_elb_l	r_elb_m	r_low	r_wri_l	r_wri_m	r_met	l_upa	l_elb_l	l_elb_m	l_low	l_wri_l	l_wri_m	l_met
	X1	Y1	Z1	X2	Y2	Z2	X3	Y3	Z3	X4	Y4	Z4	X5	Y5	Z5	X6	Y6	Z6	X7	Y7	Z7	X8	Y8	Z8	X9	Y9	Z9	X10	Y10	Z10	X11	Y11	Z11	X12	Y12	Z12	X13	Y13	Z13	X14	Y14	Z14	X15	Y15	Z15	X16	Y16	Z16	X17	Y17	Z17	X18	Y18	Z18
8480	33.91600	413.21228	1413.88623	43.00518	523.98920	1350.02039	204.28299	409.18240	1372.40637	-143.68745	556.18695	1308.33984	-3.78374	528.45398	1152.92334	274.67429	551.90228	1056.04883	283.20432	469.34073	1026.48474	233.99120	548.85364	922.68298	296.99826	637.94800	866.43677	234.98422	584.71014	830.50659	266.63510	693.69855	790.98962	227.97913	465.97406	1174.58008	-210.74873	481.46634	1132.63513	-230.32208	518.80182	1073.44092	-138.79951	593.35687	1169.77673	-199.44019	591.68036	1275.14844	-207.97899	651.68298	1256.75244	-164.85808	645.90656	1326.49683	-230.66357
8481	33.92000	413.15073	1413.87610	43.06544	523.92786	1350.00305	204.33713	409.13181	1372.39307	-143.64992	556.12439	1308.32483	-3.73994	528.39209	1152.90356	274.70145	551.83344	1056.02466	283.22400	469.29199	1026.46216	234.00873	548.78827	922.65936	297.00024	637.88654	866.42084	234.98369	584.65411	830.48627	266.62918	693.68011	790.87970	227.91322	465.91367	1174.55725	-210.68567	481.40448	1132.58984	-230.23184	518.47614	1073.26953	-138.94862	593.30194	1169.71606	-199.38997	591.65833	1275.09546	-207.93723	651.65985	1256.68457	-164.88057	645.88440	1326.42358	-230.64694
8482	33.92400	413.08969	1413.87122	43.10575	523.87421	1349.98230	204.38586	409.08200	1372.37744	-143.61278	556.06488	1308.31787	-3.68933	528.32556	1152.87939	274.71411	551.77435	1055.99329	283.23126	469.23669	1026.44128	234.03162	548.72601	922.63196	296.99780	637.82886	866.40448	234.96956	584.60077	830.47052	266.62201	693.67010	790.74469	227.82819	465.85870	1174.53003	-210.62811	481.33960	1132.53479	-230.16205	518.92981	1073.54980	-138.45169	593.24786	1169.66016	-199.34357	591.64166	1275.03967	-207.89432	651.59131	1256.74878	-165.07033	645.85321	1326.33008	-230.63594
8483	33.92800	413.03421	1413.86536	43.13807	523.81732	1349.96484	204.43649	409.03897	1372.35828	-143.56563	556.00781	1308.32166	-3.62869	528.27197	1152.86682	274.73871	551.71002	1055.96228	283.22690	469.18167	1026.42126	234.04901	548.66595	922.61169	297.00153	637.76746	866.37738	234.95644	584.54810	830.45831	266.60977	693.55029	790.89154	227.89697	465.80774	1174.49329	-210.57335	481.26901	1132.48608	-230.11194	519.59668	1073.96179	-137.77228	593.19513	1169.59839	-199.29633	591.62604	1274.98804	-207.85828	651.44696	1256.97961	-165.50655	645.82532	1326.24512	-230.63005
8484	33.93200	412.97617	1413.85352	43.17896	523.76093	1349.95093	204.48029	408.99191	1372.34412	-143.52603	555.94812	1308.31689	-3.58187	528.21454	1152.84351	274.76041	551.65240	1055.92908	283.23785	469.13202	1026.40747	234.06676	548.61005	922.59448	297.00723	637.70667	866.35175	234.94191	584.49457	830.44641	266.59476	693.48779	790.91669	227.89514	465.75980	1174.45251	-210.51314	481.20840	1132.43726	-230.06860	519.12109	1073.70776	-138.04292	593.14471	1169.53455	-199.25435	591.53442	1275.00146	-207.67133	651.66492	1256.96057	-166.35892	645.80518	1326.16614	-230.61609
8485	33.93600	412.92300	1413.83960	43.21917	523.70502	1349.93982	204.52356	408.94537	1372.32910	-143.48982	555.89288	1308.30396	-3.53377	528.16284	1152.83313	274.78372	551.59991	1055.89795	283.25003	469.07880	1026.39526	234.08783	548.55975	922.57703	297.01071	637.65222	866.33173	234.92761	584.44342	830.43634	266.58466	693.47754	790.82001	227.82487	465.71848	1174.41479	-210.46069	481.15207	1132.39392	-230.02826	519.53473	1073.97742	-137.58470	593.09363	1169.47095	-199.20837	591.35382	1275.09473	-207.29796	652.24640	1256.86426	-168.00748	645.78528	1326.08521	-230.59294
8486	33.94000	412.87479	1413.83606	43.26277	523.64874	1349.93018	204.57716	408.89413	1372.31799	-143.45229	555.83569	1308.28601	-3.48582	528.11322	1152.81409	274.80869	551.55554	1055.87439	283.26566	469.02670	1026.39026	234.10429	548.51007	922.55475	297.00739	637.59918	866.32275	234.91689	584.40106	830.42523	266.57587	693.47778	790.69452	227.73354	465.67096	1174.38269	-210.41270	481.10037	1132.35803	-229.96320	518.99420	1073.67493	-137.91925	593.05463	1169.41333	-199.15796	591.30212	1275.07617	-207.16701	652.38739	1256.78662	-168.40213	645.77673	1326.02112	-230.55203
8487	33.94400	412.81842	1413.83313	43.29565	523.59033	1349.92151	204.62665	408.84070	1372.31421	-143.41617	555.77759	1308.27686	-3.43961	528.06549	1152.80872	274.82681	551.50269	1055.85461	283.28040	468.98599	1026.38269	234.12241	548.46686	922.53668	297.00586	637.55603	866.31696	234.91150	584.35699	830.41656	266.56628	693.36707	790.84729	227.79941	465.61075	1174.35242	-210.36023	481.04745	1132.34778	-229.91478	520.05487	1074.31165	-136.91667	593.01660	1169.36243	-199.09758	591.28021	1275.03638	-207.08659	652.42029	1256.72131	-168.47935	645.78320	1325.97205	-230.48892
8488	33.94800	412.75638	1413.82385	43.33121	523.53558	1349.92346	204.67513	408.78674	1372.30750	-143.37291	555.71155	1308.26855	-3.39582	528.01764	1152.80225	274.85684	551.45758	1055.85876	283.31311	468.87662	1026.40881	234.12263	548.41919	922.52722	297.01233	637.52045	866.31915	234.91202	584.31445	830.40802	266.55811	693.30798	790.89203	227.81682	465.54779	1174.33179	-210.30923	480.99142	1132.34424	-229.84921	520.30438	1074.46619	-136.59119	592.98328	1169.32251	-199.02962	591.27008	1275.00891	-207.01909	652.42047	1256.66882	-168.48003	645.79962	1325.94043	-230.42491
8489	33.95200	412.69995	1413.81104	43.37401	523.48364	1349.93079	204.72304	408.73129	1372.30884	-143.31371	555.51495	1308.39905	-3.59582	527.96661	1152.78955	274.88312	551.40851	1055.87158	283.34442	468.70767	1026.47632	234.08731	548.37048	922.51239	297.01251	637.49127	866.33203	234.92038	584.27161	830.40259	266.55051	693.26373	790.91345	227.81653	465.48975	1174.31873	-210.25180	480.94135	1132.35754	-229.78459	520.33972	1074.48462	-136.45149	592.95300	1169.29004	-198.96271	591.27155	1274.98633	-206.95758	652.55603	1256.51135	-168.15085	645.82434	1325.91785	-230.33482
8490	33.95600	412.64532	1413.80652	43.41728	523.42499	1349.93896	204.77573	408.67166	1372.30945	-143.26640	555.28558	1308.56604	-3.85504	527.91138	1152.77075	274.90228	551.35938	1055.87952	283.37543	468.68793	1026.44958	234.10579	548.32501	922.49805	297.01422	637.45740	866.35107	234.93016	584.22778	830.39441	266.54626	693.22815	790.93542	227.81711	465.42917	1174.31641	-210.18575	480.90347	1132.37256	-229.71489	520.31433	1074.47620	-136.37326	592.92810	1169.26147	-198.90001	591.27509	1274.97412	-206.89633	652.86615	1256.20728	-167.41777	645.85815	1325.88464	-230.23981
8491	33.96000	412.58862	1413.81140	43.45679	523.37000	1349.94653	204.83308	408.61349	1372.31506	-143.21703	555.46344	1308.33374	-3.38103	527.85913	1152.74976	274.92703	551.30780	1055.88953	283.40805	468.76938	1026.36438	234.15594	548.27856	922.48749	297.02625	637.42065	866.36481	234.93869	584.18658	830.38745	266.54767	693.19073	790.95831	227.81355	465.37192	1174.31824	-210.11510	480.86728	1132.37402	-229.63547	520.27252	1074.46533	-136.31848	592.90009	1169.23901	-198.83218	591.28021	1274.96069	-206.82967	652.80731	1256.20874	-167.49986	645.88879	1325.85168	-230.13786
8492	33.96400	412.53354	1413.81201	43.49922	523.31073	1349.94604	204.88295	408.55746	1372.31250	-143.17319	555.47510	1308.27588	-3.22015	527.81488	1152.74817	274.96063	551.26489	1055.89062	283.43045	468.74643	1026.34241	234.18321	548.23352	922.47870	297.03857	637.38336	866.37244	234.93742	584.14691	830.38519	266.54852	693.15637	790.97845	227.80048	465.31958	1174.32312	-210.04755	480.83167	1132.38123	-229.56395	520.22205	1074.44348	-136.27919	592.87555	1169.21826	-198.76703	591.28497	1274.93835	-206.76157	652.64465	1256.29065	-167.80115	645.91180	1325.82397	-230.07155
8493	33.96800	412.47916	1413.80811	43.53407	523.25140	1349.94482	204.92180	408.49991	1372.30920	-143.13243	555.57556	1308.22449	-2.99687	527.76398	1152.75085	274.98196	551.22247	1055.87622	283.43765	468.64975	1026.36523	234.17581	548.19226	922.47089	297.04526	637.33960	866.37628	234.92548	584.10980	830.38300	266.54279	693.12274	790.99658	227.79152	465.27234	1174.32080	-209.98853	480.79971	1132.37854	-229.50534	520.16876	1074.43298	-136.25049	592.85431	1169.18835	-198.70720	591.28748	1274.91040	-206.71373	652.87720	1256.04028	-167.23314	645.92114	1325.78613	-230.03200
8494	33.97200	412.42599	1413.80688	43.57092	523.19379	1349.94409	204.95384	408.44427	1372.30518	-143.09865	555.70447	1308.18066	-2.76193	527.70789	1152.74902	274.99954	551.18073	1055.86755	283.44934	468.47559	1026.44299	234.15849	548.15692	922.46503	297.04984	637.29108	866.36945	234.91289	584.07880	830.38312	266.54199	693.08398	790.99988	227.77370	465.23474	1174.30994	-209.94278	480.76855	1132.37122	-229.46561	520.13208	1074.43042	-136.20343	592.82904	1169.15308	-198.65556	591.28986	1274.87354	-206.67067	652.93079	1255.93848	-167.07304	645.92456	1325.73181	-229.99161
8495	33.97600	412.37384	1413.80664	43.60602	523.14423	1349.93652	204.97754	408.39465	1372.29321	-143.06776	555.55249	1308.20691	-2.85399	527.66046	1152.74854	275.03024	551.14233	1055.85303	283.45239	468.40109	1026.46619	234.17113	548.13385	922.45300	297.05637	637.24280	866.35229	234.89865	584.04883	830.37891	266.54410	693.05042	790.99530	227.75357	465.20514	1174.29114	-209.90810	480.74258	1132.36707	-229.43909	520.09802	1074.42859	-136.16431	592.80554	1169.11255	-198.61108	591.29559	1274.82239	-206.62250	652.94098	1255.86792	-167.01372	645.92950	1325.66882	-229.97218
8496	33.98000	412.32193	1413.80139	43.63050	523.09399	1349.92224	205.00217	408.34827	1372.27649	-143.04327	555.49402	1308.31653	-2.93898	527.61755	1152.74536	275.05771	551.10577	1055.83191	283.44308	468.34634	1026.46899	234.18143	548.09772	922.44934	297.06580	637.20117	866.33649	234.89079	584.01770	830.37140	266.54642	693.01709	790.99042	227.73218	465.18375	1174.26892	-209.87585	480.71866	1132.35303	-229.42297	520.06079	1074.42700	-136.13872	592.78259	1169.06580	-198.56662	591.30133	1274.76611	-206.58067	652.94232	1255.80896	-166.97105	645.93817	1325.60254	-229.96777
